<svg xmlns="http://www.w3.org/2000/svg" viewBox="0 0 59.6 59.6"><defs><style>.cls-1{fill:#fff;fill-rule:evenodd;}.cls-2{fill:#ff6b00;}</style></defs><title>Asset 1</title><g id="Layer_2" data-name="Layer 2"><g id="Layer_1-2" data-name="Layer 1"><path class="cls-1" d="M29.8,59.6A29.8,29.8,0,1,0,0,29.8,29.8,29.8,0,0,0,29.8,59.6"/><path class="cls-2" d="M43,20.41a2.57,2.57,0,0,1,1.63,4.88L47,32.61a2.61,2.61,0,0,1-1.63,3.25q-10.15-4-17.89-2.08a3.48,3.48,0,0,0-1.32,1.83,3.22,3.22,0,0,0,0,2.11,2.72,2.72,0,0,0,1.35,1.51,3.07,3.07,0,0,0,0,1.39,2.74,2.74,0,0,0,.48,1.07,3.74,3.74,0,0,0,1,.84,8.75,8.75,0,0,0,1.23.65q.58.24,1.49.57A3.45,3.45,0,0,1,30.18,46,7.53,7.53,0,0,1,27,47.33a5,5,0,0,1-2.87-.22q-.28-.39-1.12-1.48T21.85,44q-.37-.51-1-1.55a11.09,11.09,0,0,1-.93-1.83,16.2,16.2,0,0,1-.56-1.9,10.44,10.44,0,0,1-.28-2.25l-2.33.78a3.22,3.22,0,0,1-4.07-2l-1.22-3.66a3.22,3.22,0,0,1,2-4.07l9.15-3q8.29-2.76,14.64-13a2.61,2.61,0,0,1,3.25,1.63Zm1.4,12.32L38.31,14.55Q32.72,22.81,25.86,26l1.71,5.15Q35,29.52,44.37,32.73Z"/></g></g></svg>